<?xml version="1.0" encoding="UTF-8" standalone="no"?>
<!DOCTYPE svg PUBLIC "-//W3C//DTD SVG 1.1//EN" "http://www.w3.org/Graphics/SVG/1.1/DTD/svg11.dtd">
<svg xmlns="http://www.w3.org/2000/svg" width="24" height="24" x="0" y="0" class="stencil--easier-to-select"><defs></defs><rect x="0" y="0" width="24" height="24" fill="transparent" class="stencil__selection-helper"></rect><path d="M24 2.4171428571428564C24 2.4171428571428564 21.582857142857144 0 21.582857142857144 0 21.582857142857144 0 11.999999999999998 9.582857142857142 11.999999999999998 9.582857142857142 11.999999999999998 9.582857142857142 2.4171428571428564 0 2.4171428571428564 0 2.4171428571428564 0 0 2.4171428571428564 0 2.4171428571428564 0 2.4171428571428564 9.582857142857142 11.999999999999998 9.582857142857142 11.999999999999998 9.582857142857142 11.999999999999998 0 21.582857142857144 0 21.582857142857144 0 21.582857142857144 2.4171428571428564 24 2.4171428571428564 24 2.4171428571428564 24 11.999999999999998 14.417142857142855 11.999999999999998 14.417142857142855 11.999999999999998 14.417142857142855 21.582857142857144 24 21.582857142857144 24 21.582857142857144 24 24 21.582857142857144 24 21.582857142857144 24 21.582857142857144 14.417142857142855 11.999999999999998 14.417142857142855 11.999999999999998 14.417142857142855 11.999999999999998 24 2.4171428571428564 24 2.4171428571428564" stroke-width="0" stroke="none" stroke-dasharray="none" fill="rgb(255,255,255)" fill-rule="evenOdd"></path></svg>