<?xml version="1.0" encoding="UTF-8" standalone="no"?>
<!DOCTYPE svg PUBLIC "-//W3C//DTD SVG 1.1//EN" "http://www.w3.org/Graphics/SVG/1.1/DTD/svg11.dtd">
<svg xmlns="http://www.w3.org/2000/svg" width="19" height="15" x="0" y="0" class="stencil--easier-to-select"><defs></defs><rect x="0" y="0" width="19" height="15" fill="transparent" class="stencil__selection-helper"></rect><path d="M17.1 0C17.1 0 1.9 0 1.9 0 0.855 0 0.009499999999999842 0.84375 0.009499999999999842 1.875 0.009499999999999842 1.875 0 13.125 0 13.125 0 14.15625 0.855 15 1.9 15 1.9 15 17.1 15 17.1 15 18.145000000000003 15 19 14.15625 19 13.125 19 13.125 19 1.875 19 1.875 19 0.84375 18.145000000000003 0 17.1 0 17.1 0 17.1 0 17.1 0M17.1 13.125C17.1 13.125 1.9 13.125 1.9 13.125 1.9 13.125 1.9 3.75 1.9 3.75 1.9 3.75 9.499999999999998 8.4375 9.499999999999998 8.4375 9.499999999999998 8.4375 17.1 3.75 17.1 3.75 17.1 3.75 17.1 13.125 17.1 13.125 17.1 13.125 17.1 13.125 17.1 13.125M9.499999999999998 6.5625C9.499999999999998 6.5625 1.9 1.875 1.9 1.875 1.9 1.875 17.1 1.875 17.1 1.875 17.1 1.875 9.499999999999998 6.5625 9.499999999999998 6.5625 9.499999999999998 6.5625 9.499999999999998 6.5625 9.499999999999998 6.5625" stroke-width="0" stroke="none" stroke-dasharray="none" fill="rgb(255,255,255)" fill-rule="evenOdd"></path></svg>