<?xml version="1.0" encoding="UTF-8" standalone="no"?>
<!DOCTYPE svg PUBLIC "-//W3C//DTD SVG 1.1//EN" "http://www.w3.org/Graphics/SVG/1.1/DTD/svg11.dtd">
<svg xmlns="http://www.w3.org/2000/svg" width="24" height="16" x="0" y="0" class="stencil--easier-to-select"><defs></defs><rect x="0" y="0" width="24" height="16" fill="transparent" class="stencil__selection-helper"></rect><path d="M0 16C0 16 24 16 24 16 24 16 24 13.333333333333332 24 13.333333333333332 24 13.333333333333332 0 13.333333333333332 0 13.333333333333332 0 13.333333333333332 0 16 0 16 0 16 0 16 0 16M0 9.333333333333332C0 9.333333333333332 24 9.333333333333332 24 9.333333333333332 24 9.333333333333332 24 6.666666666666666 24 6.666666666666666 24 6.666666666666666 0 6.666666666666666 0 6.666666666666666 0 6.666666666666666 0 9.333333333333332 0 9.333333333333332 0 9.333333333333332 0 9.333333333333332 0 9.333333333333332M0 0C0 0 0 2.666666666666666 0 2.666666666666666 0 2.666666666666666 24 2.666666666666666 24 2.666666666666666 24 2.666666666666666 24 0 24 0 24 0 0 0 0 0 0 0 0 0 0 0" stroke-width="0" stroke="none" stroke-dasharray="none" fill="rgb(255,255,255)" fill-rule="evenOdd"></path></svg>