<?xml version="1.0" encoding="UTF-8" standalone="no"?>
<!DOCTYPE svg PUBLIC "-//W3C//DTD SVG 1.1//EN" "http://www.w3.org/Graphics/SVG/1.1/DTD/svg11.dtd">
<svg xmlns="http://www.w3.org/2000/svg" width="71" height="94" x="0" y="0" class="stencil--easier-to-select"><defs></defs><rect x="0" y="0" width="71" height="94" fill="transparent" class="stencil__selection-helper"></rect><path d="M35.5 71.61904761904762C40.38125 71.61904761904762 44.375 67.5904761904762 44.375 62.666666666666664 44.375 57.74285714285714 40.38125 53.714285714285715 35.5 53.714285714285715 30.61875 53.714285714285715 26.625 57.74285714285715 26.625 62.666666666666664 26.625 67.5904761904762 30.61875 71.61904761904762 35.5 71.61904761904762 35.5 71.61904761904762 35.5 71.61904761904762 35.5 71.61904761904762M62.125 31.333333333333336C62.125 31.333333333333336 57.6875 31.333333333333336 57.6875 31.333333333333336 57.6875 31.333333333333336 57.6875 22.38095238095238 57.6875 22.38095238095238 57.6875 10.026666666666667 47.7475 0 35.5 0 23.252499999999998 0 13.3125 10.026666666666667 13.3125 22.38095238095238 13.3125 22.38095238095238 21.74375 22.38095238095238 21.74375 22.38095238095238 21.74375 14.726666666666668 27.911874999999995 8.504761904761905 35.5 8.504761904761905 43.088125000000005 8.504761904761905 49.256249999999994 14.726666666666668 49.256249999999994 22.38095238095238 49.256249999999994 22.38095238095238 49.256249999999994 31.333333333333336 49.256249999999994 31.333333333333336 49.256249999999994 31.333333333333336 8.875 31.333333333333336 8.875 31.333333333333336 3.993750000000002 31.333333333333336 0 35.36190476190477 0 40.285714285714285 0 40.285714285714285 0 85.04761904761904 0 85.04761904761904 0 89.97142857142858 3.993750000000002 94 8.875 94 8.875 94 62.125 94 62.125 94 67.00625000000001 94 71 89.97142857142858 71 85.04761904761904 71 85.04761904761904 71 40.285714285714285 71 40.285714285714285 71 35.36190476190477 67.00625000000001 31.333333333333336 62.125 31.333333333333336 62.125 31.333333333333336 62.125 31.333333333333336 62.125 31.333333333333336M62.125 85.04761904761904C62.125 85.04761904761904 8.875 85.04761904761904 8.875 85.04761904761904 8.875 85.04761904761904 8.875 40.285714285714285 8.875 40.285714285714285 8.875 40.285714285714285 62.125 40.285714285714285 62.125 40.285714285714285 62.125 40.285714285714285 62.125 85.04761904761904 62.125 85.04761904761904 62.125 85.04761904761904 62.125 85.04761904761904 62.125 85.04761904761904" stroke-width="0" stroke="none" stroke-dasharray="none" fill="rgb(255,255,255)" fill-rule="evenOdd"></path></svg>