<?xml version="1.0" encoding="UTF-8" standalone="no"?>
<!DOCTYPE svg PUBLIC "-//W3C//DTD SVG 1.1//EN" "http://www.w3.org/Graphics/SVG/1.1/DTD/svg11.dtd">
<svg xmlns="http://www.w3.org/2000/svg" width="19" height="17" x="0" y="0" class="stencil--easier-to-select"><defs></defs><rect x="0" y="0" width="19" height="17" fill="transparent" class="stencil__selection-helper"></rect><path d="M9.5 2.0187500000000007C11.419689645055506 2.0187500000000007 12.619495706920205 3.878124999999999 11.659650884392452 5.365625 11.214185351975711 6.05597615251741 10.390931064833483 6.481249999999999 9.5 6.481249999999999 7.580310354944494 6.481249999999999 6.380504360489811 4.621875000000001 7.340349183017564 3.1343750000000012 7.785814715434304 2.4440238474825913 8.609068935166517 2.0187500000000007 9.5 2.0187500000000007M9.5 11.58125C13.026875 11.58125 16.743750000000002 13.1325 16.743750000000002 13.8125 16.743750000000002 13.8125 16.743750000000002 14.981250000000003 16.743750000000002 14.981250000000003 16.743750000000002 14.981250000000003 2.2562500000000005 14.981250000000003 2.2562500000000005 14.981250000000003 2.2562500000000005 14.981250000000003 2.2562500000000005 13.8125 2.2562500000000005 13.8125 2.2562500000000005 13.1325 5.973125 11.58125 9.5 11.58125M9.5 0C6.875624999999999 0 4.75 1.9018750000000004 4.75 4.25 4.75 6.598125000000001 6.875624999999999 8.5 9.5 8.5 12.124375 8.5 14.25 6.598125000000001 14.25 4.25 14.25 1.9018749999999986 12.124375 0 9.5 0 9.5 0 9.5 0 9.5 0M9.5 9.5625C6.329375000000001 9.5625 0 10.98625 0 13.8125 0 13.8125 0 17 0 17 0 17 19 17 19 17 19 17 19 13.8125 19 13.8125 19 10.98625 12.670625000000001 9.5625 9.5 9.5625 9.5 9.5625 9.5 9.5625 9.5 9.5625" stroke-width="0" stroke="none" stroke-dasharray="none" fill="rgb(255,255,255)" fill-rule="evenOdd"></path></svg>